<svg width="45" height="44" viewBox="0 0 45 44" fill="none" xmlns="http://www.w3.org/2000/svg">
<path d="M18.5 23.5H26.5M18.5 18.5H22.5" stroke="#141B34" stroke-width="1.5" stroke-linecap="round" stroke-linejoin="round"/>
<path d="M16.5988 29C15.2987 28.8721 14.3248 28.4816 13.6716 27.8284C12.5 26.6569 12.5 24.7712 12.5 21V20.5C12.5 16.7288 12.5 14.8432 13.6716 13.6716C14.8432 12.5 16.7288 12.5 20.5 12.5H24.5C28.2712 12.5 30.1569 12.5 31.3284 13.6716C32.5 14.8432 32.5 16.7288 32.5 20.5V21C32.5 24.7712 32.5 26.6569 31.3284 27.8284C30.1569 29 28.2712 29 24.5 29C23.9395 29.0125 23.4931 29.0551 23.0546 29.155C21.8562 29.4309 20.7465 30.0441 19.6499 30.5789C18.0873 31.3408 17.306 31.7218 16.8157 31.3651C15.8777 30.6665 16.7945 28.5019 17 27.5" stroke="#141B34" stroke-width="1.5" stroke-linecap="round"/>
</svg>
